<svg width="19" height="13" viewBox="0 0 19 13" fill="none" xmlns="http://www.w3.org/2000/svg">
<path d="M4.656 12.16C3.856 12.16 3.16267 12.016 2.576 11.728C1.98933 11.44 1.54133 11.0667 1.232 10.608C0.922667 10.1387 0.757333 9.63733 0.736 9.104V9.072C0.736 8.98667 0.768 8.91733 0.832 8.864C0.896 8.81067 0.970667 8.784 1.056 8.784H1.84C2.064 8.784 2.208 8.90133 2.272 9.136C2.432 9.712 2.72533 10.144 3.152 10.432C3.58933 10.7093 4.09067 10.848 4.656 10.848C5.38133 10.848 5.984 10.6293 6.464 10.192C6.944 9.744 7.184 9.13067 7.184 8.352C7.184 7.63733 6.944 7.072 6.464 6.656C5.984 6.22933 5.38133 6.016 4.656 6.016C4.272 6.016 3.96267 6.064 3.728 6.16C3.49333 6.256 3.25333 6.39467 3.008 6.576C2.86933 6.68267 2.752 6.76267 2.656 6.816C2.57067 6.85867 2.47467 6.88 2.368 6.88H1.6C1.504 6.88 1.41867 6.848 1.344 6.784C1.26933 6.70933 1.23733 6.624 1.248 6.528L1.744 1.2C1.776 0.933333 1.90933 0.799999 2.144 0.799999H7.68C7.79733 0.799999 7.888 0.831999 7.952 0.896C8.016 0.96 8.048 1.05067 8.048 1.168V1.76C8.048 1.86667 8.01067 1.952 7.936 2.016C7.872 2.08 7.78667 2.112 7.68 2.112H3.072L2.784 5.328C3.296 4.96533 3.984 4.784 4.848 4.784C5.56267 4.784 6.21333 4.928 6.8 5.216C7.38667 5.49333 7.85067 5.904 8.192 6.448C8.544 6.992 8.72 7.63733 8.72 8.384C8.72 9.17333 8.544 9.856 8.192 10.432C7.85067 10.9973 7.37067 11.4293 6.752 11.728C6.144 12.016 5.44533 12.16 4.656 12.16ZM14.5248 12.16C13.1488 12.16 12.1408 11.76 11.5008 10.96C10.8714 10.1493 10.5354 9.09333 10.4928 7.792L10.4768 6.416L10.4928 4.992C10.5248 3.70133 10.8608 2.656 11.5008 1.856C12.1514 1.04533 13.1594 0.639999 14.5248 0.639999C15.9008 0.639999 16.9088 1.04533 17.5487 1.856C18.1994 2.656 18.5408 3.70133 18.5728 4.992C18.5834 5.29067 18.5888 5.76533 18.5888 6.416C18.5888 7.04533 18.5834 7.504 18.5728 7.792C18.5301 9.09333 18.1887 10.1493 17.5487 10.96C16.9194 11.76 15.9114 12.16 14.5248 12.16ZM14.5248 10.832C15.3461 10.832 15.9648 10.56 16.3808 10.016C16.7968 9.472 17.0154 8.704 17.0368 7.712C17.0474 7.40267 17.0528 6.96 17.0528 6.384C17.0528 5.79733 17.0474 5.36 17.0368 5.072C17.0154 4.09067 16.7914 3.328 16.3648 2.784C15.9488 2.22933 15.3354 1.952 14.5248 1.952C13.7141 1.952 13.1008 2.22933 12.6848 2.784C12.2688 3.328 12.0501 4.09067 12.0288 5.072L12.0128 6.384L12.0288 7.712C12.0501 8.704 12.2688 9.472 12.6848 10.016C13.1008 10.56 13.7141 10.832 14.5248 10.832Z" fill="white"/>
</svg>
