<svg width="30" height="13" viewBox="0 0 30 13" fill="none" xmlns="http://www.w3.org/2000/svg">
<path d="M1.152 12C1.04533 12 0.954667 11.968 0.88 11.904C0.816 11.8293 0.784 11.7387 0.784 11.632V11.152C0.784 10.9067 0.917333 10.672 1.184 10.448L4.672 6.976C5.46133 6.304 6.00533 5.75467 6.304 5.328C6.60267 4.90133 6.752 4.448 6.752 3.968C6.752 3.33867 6.576 2.848 6.224 2.496C5.872 2.13333 5.36 1.952 4.688 1.952C4.048 1.952 3.54133 2.13867 3.168 2.512C2.79467 2.88533 2.56533 3.38667 2.48 4.016C2.45867 4.13333 2.40533 4.224 2.32 4.288C2.23467 4.352 2.14933 4.384 2.064 4.384H1.296C1.2 4.384 1.12 4.352 1.056 4.288C0.992 4.224 0.96 4.14933 0.96 4.064C0.981333 3.49867 1.13067 2.95467 1.408 2.432C1.696 1.89867 2.11733 1.46667 2.672 1.136C3.22667 0.794666 3.89867 0.624 4.688 0.624C5.88267 0.624 6.77867 0.938666 7.376 1.568C7.984 2.18667 8.288 2.976 8.288 3.936C8.288 4.608 8.12267 5.216 7.792 5.76C7.472 6.29333 6.96533 6.85867 6.272 7.456L3.12 10.656H8.16C8.27733 10.656 8.368 10.688 8.432 10.752C8.496 10.816 8.528 10.9067 8.528 11.024V11.632C8.528 11.7387 8.49067 11.8293 8.416 11.904C8.352 11.968 8.26667 12 8.16 12H1.152ZM14.7998 12.16C13.4131 12.16 12.3358 11.776 11.5678 11.008C10.7998 10.24 10.3891 9.2 10.3358 7.888C10.3251 7.568 10.3198 7.06667 10.3198 6.384C10.3198 5.69067 10.3251 5.18933 10.3358 4.88C10.3784 3.57867 10.7838 2.54933 11.5518 1.792C12.3304 1.024 13.4131 0.639999 14.7998 0.639999C15.7384 0.639999 16.5331 0.810666 17.1838 1.152C17.8344 1.49333 18.3251 1.904 18.6558 2.384C18.9864 2.85333 19.1624 3.29067 19.1838 3.696V3.728C19.1838 3.81333 19.1464 3.888 19.0718 3.952C19.0078 4.00533 18.9331 4.032 18.8478 4.032H17.9518C17.8558 4.032 17.7811 4.01067 17.7278 3.968C17.6851 3.92533 17.6424 3.84533 17.5998 3.728C17.4291 3.22667 17.1144 2.80533 16.6558 2.464C16.1971 2.12267 15.5784 1.952 14.7998 1.952C13.9038 1.952 13.1998 2.19733 12.6878 2.688C12.1758 3.17867 11.9038 3.936 11.8718 4.96C11.8611 5.26933 11.8558 5.744 11.8558 6.384C11.8558 7.01333 11.8611 7.488 11.8718 7.808C11.9038 8.84267 12.1758 9.60533 12.6878 10.096C13.1998 10.5867 13.9038 10.832 14.7998 10.832C15.7064 10.832 16.4318 10.5867 16.9758 10.096C17.5198 9.59467 17.7917 8.848 17.7917 7.856V7.168H15.3438C15.2371 7.168 15.1464 7.13067 15.0718 7.056C15.0078 6.98133 14.9758 6.89067 14.9758 6.784V6.304C14.9758 6.19733 15.0078 6.10667 15.0718 6.032C15.1464 5.95733 15.2371 5.92 15.3438 5.92H18.9278C19.0451 5.92 19.1358 5.95733 19.1998 6.032C19.2744 6.096 19.3118 6.18667 19.3118 6.304V7.824C19.3118 8.688 19.1304 9.45067 18.7678 10.112C18.4158 10.7627 17.8984 11.2693 17.2158 11.632C16.5331 11.984 15.7278 12.16 14.7998 12.16ZM21.9631 12C21.8565 12 21.7711 11.968 21.7071 11.904C21.6431 11.8293 21.6111 11.7387 21.6111 11.632V1.184C21.6111 1.06667 21.6431 0.976 21.7071 0.912C21.7711 0.837333 21.8565 0.799999 21.9631 0.799999H26.3311C27.4618 0.799999 28.3151 1.072 28.8911 1.616C29.4671 2.16 29.7551 2.86933 29.7551 3.744C29.7551 4.34133 29.6165 4.84267 29.3391 5.248C29.0618 5.64267 28.7365 5.93067 28.3631 6.112C28.8218 6.336 29.2058 6.68267 29.5151 7.152C29.8245 7.62133 29.9791 8.16 29.9791 8.768C29.9791 9.36533 29.8405 9.90933 29.5631 10.4C29.2965 10.8907 28.8965 11.28 28.3631 11.568C27.8298 11.856 27.1951 12 26.4591 12H21.9631ZM26.0911 5.552C26.7845 5.552 27.3125 5.39733 27.6751 5.088C28.0378 4.768 28.2191 4.32533 28.2191 3.76C28.2191 3.20533 28.0378 2.784 27.6751 2.496C27.3231 2.208 26.7951 2.064 26.0911 2.064H23.1151V5.552H26.0911ZM26.2511 10.736C26.9338 10.736 27.4671 10.5547 27.8511 10.192C28.2458 9.81867 28.4431 9.344 28.4431 8.768C28.4431 8.18133 28.2458 7.70667 27.8511 7.344C27.4671 6.98133 26.9338 6.8 26.2511 6.8H23.1151V10.736H26.2511Z" fill="white"/>
</svg>
