<svg width="19" height="13" viewBox="0 0 19 13" fill="none" xmlns="http://www.w3.org/2000/svg">
<path d="M1.152 12C1.04533 12 0.954667 11.968 0.88 11.904C0.816 11.8293 0.784 11.7387 0.784 11.632V11.152C0.784 10.9067 0.917333 10.672 1.184 10.448L4.672 6.976C5.46133 6.304 6.00533 5.75467 6.304 5.328C6.60267 4.90133 6.752 4.448 6.752 3.968C6.752 3.33867 6.576 2.848 6.224 2.496C5.872 2.13333 5.36 1.952 4.688 1.952C4.048 1.952 3.54133 2.13867 3.168 2.512C2.79467 2.88533 2.56533 3.38667 2.48 4.016C2.45867 4.13333 2.40533 4.224 2.32 4.288C2.23467 4.352 2.14933 4.384 2.064 4.384H1.296C1.2 4.384 1.12 4.352 1.056 4.288C0.992 4.224 0.96 4.14933 0.96 4.064C0.981333 3.49867 1.13067 2.95467 1.408 2.432C1.696 1.89867 2.11733 1.46667 2.672 1.136C3.22667 0.794666 3.89867 0.624 4.688 0.624C5.88267 0.624 6.77867 0.938666 7.376 1.568C7.984 2.18667 8.288 2.976 8.288 3.936C8.288 4.608 8.12267 5.216 7.792 5.76C7.472 6.29333 6.96533 6.85867 6.272 7.456L3.12 10.656H8.16C8.27733 10.656 8.368 10.688 8.432 10.752C8.496 10.816 8.528 10.9067 8.528 11.024V11.632C8.528 11.7387 8.49067 11.8293 8.416 11.904C8.352 11.968 8.26667 12 8.16 12H1.152ZM14.3998 12.16C13.0238 12.16 12.0158 11.76 11.3758 10.96C10.7464 10.1493 10.4104 9.09333 10.3678 7.792L10.3518 6.416L10.3678 4.992C10.3998 3.70133 10.7358 2.656 11.3758 1.856C12.0264 1.04533 13.0344 0.639999 14.3998 0.639999C15.7758 0.639999 16.7838 1.04533 17.4237 1.856C18.0744 2.656 18.4158 3.70133 18.4478 4.992C18.4584 5.29067 18.4638 5.76533 18.4638 6.416C18.4638 7.04533 18.4584 7.504 18.4478 7.792C18.4051 9.09333 18.0637 10.1493 17.4237 10.96C16.7944 11.76 15.7864 12.16 14.3998 12.16ZM14.3998 10.832C15.2211 10.832 15.8398 10.56 16.2558 10.016C16.6718 9.472 16.8904 8.704 16.9118 7.712C16.9224 7.40267 16.9278 6.96 16.9278 6.384C16.9278 5.79733 16.9224 5.36 16.9118 5.072C16.8904 4.09067 16.6664 3.328 16.2398 2.784C15.8238 2.22933 15.2104 1.952 14.3998 1.952C13.5891 1.952 12.9758 2.22933 12.5598 2.784C12.1438 3.328 11.9251 4.09067 11.9038 5.072L11.8878 6.384L11.9038 7.712C11.9251 8.704 12.1438 9.472 12.5598 10.016C12.9758 10.56 13.5891 10.832 14.3998 10.832Z" fill="white"/>
</svg>
