<svg width="19" height="13" viewBox="0 0 19 13" fill="none" xmlns="http://www.w3.org/2000/svg">
<path d="M1.152 12C1.04533 12 0.954667 11.968 0.88 11.904C0.816 11.8293 0.784 11.7387 0.784 11.632V11.152C0.784 10.9067 0.917333 10.672 1.184 10.448L4.672 6.976C5.46133 6.304 6.00533 5.75467 6.304 5.328C6.60267 4.90133 6.752 4.448 6.752 3.968C6.752 3.33867 6.576 2.848 6.224 2.496C5.872 2.13333 5.36 1.952 4.688 1.952C4.048 1.952 3.54133 2.13867 3.168 2.512C2.79467 2.88533 2.56533 3.38667 2.48 4.016C2.45867 4.13333 2.40533 4.224 2.32 4.288C2.23467 4.352 2.14933 4.384 2.064 4.384H1.296C1.2 4.384 1.12 4.352 1.056 4.288C0.992 4.224 0.96 4.14933 0.96 4.064C0.981333 3.49867 1.13067 2.95467 1.408 2.432C1.696 1.89867 2.11733 1.46667 2.672 1.136C3.22667 0.794666 3.89867 0.624 4.688 0.624C5.88267 0.624 6.77867 0.938666 7.376 1.568C7.984 2.18667 8.288 2.976 8.288 3.936C8.288 4.608 8.12267 5.216 7.792 5.76C7.472 6.29333 6.96533 6.85867 6.272 7.456L3.12 10.656H8.16C8.27733 10.656 8.368 10.688 8.432 10.752C8.496 10.816 8.528 10.9067 8.528 11.024V11.632C8.528 11.7387 8.49067 11.8293 8.416 11.904C8.352 11.968 8.26667 12 8.16 12H1.152ZM13.9998 12.16C13.1998 12.16 12.5064 12.016 11.9198 11.728C11.3331 11.44 10.8851 11.0667 10.5758 10.608C10.2664 10.1387 10.1011 9.63733 10.0798 9.104V9.072C10.0798 8.98667 10.1118 8.91733 10.1758 8.864C10.2398 8.81067 10.3144 8.784 10.3997 8.784H11.1838C11.4078 8.784 11.5518 8.90133 11.6158 9.136C11.7758 9.712 12.0691 10.144 12.4958 10.432C12.9331 10.7093 13.4344 10.848 13.9998 10.848C14.7251 10.848 15.3278 10.6293 15.8078 10.192C16.2878 9.744 16.5278 9.13067 16.5278 8.352C16.5278 7.63733 16.2878 7.072 15.8078 6.656C15.3278 6.22933 14.7251 6.016 13.9998 6.016C13.6158 6.016 13.3064 6.064 13.0718 6.16C12.8371 6.256 12.5971 6.39467 12.3518 6.576C12.2131 6.68267 12.0958 6.76267 11.9998 6.816C11.9144 6.85867 11.8184 6.88 11.7118 6.88H10.9438C10.8478 6.88 10.7624 6.848 10.6878 6.784C10.6131 6.70933 10.5811 6.624 10.5918 6.528L11.0878 1.2C11.1198 0.933333 11.2531 0.799999 11.4878 0.799999H17.0238C17.1411 0.799999 17.2318 0.831999 17.2958 0.896C17.3598 0.96 17.3918 1.05067 17.3918 1.168V1.76C17.3918 1.86667 17.3544 1.952 17.2798 2.016C17.2158 2.08 17.1304 2.112 17.0238 2.112H12.4158L12.1278 5.328C12.6398 4.96533 13.3278 4.784 14.1918 4.784C14.9064 4.784 15.5571 4.928 16.1438 5.216C16.7304 5.49333 17.1944 5.904 17.5358 6.448C17.8878 6.992 18.0638 7.63733 18.0638 8.384C18.0638 9.17333 17.8878 9.856 17.5358 10.432C17.1944 10.9973 16.7144 11.4293 16.0958 11.728C15.4878 12.016 14.7891 12.16 13.9998 12.16Z" fill="white"/>
</svg>
