<svg width="37" height="13" viewBox="0 0 37 13" fill="none" xmlns="http://www.w3.org/2000/svg">
<path d="M4.416 12C4.30933 12 4.224 11.968 4.16 11.904C4.096 11.8293 4.064 11.7387 4.064 11.632V2.608L1.376 4.672C1.30133 4.736 1.22133 4.768 1.136 4.768C1.04 4.768 0.949333 4.71467 0.864 4.608L0.48 4.112C0.426667 4.03733 0.4 3.96267 0.4 3.888C0.4 3.77067 0.453333 3.67467 0.56 3.6L4.032 0.912C4.14933 0.837333 4.288 0.799999 4.448 0.799999H5.2C5.30667 0.799999 5.392 0.837333 5.456 0.912C5.53067 0.976 5.568 1.06133 5.568 1.168V11.632C5.568 11.7387 5.53067 11.8293 5.456 11.904C5.392 11.968 5.30667 12 5.2 12H4.416ZM11.8529 12.16C10.4769 12.16 9.46888 11.76 8.82888 10.96C8.19954 10.1493 7.86354 9.09333 7.82088 7.792L7.80488 6.416L7.82088 4.992C7.85288 3.70133 8.18888 2.656 8.82888 1.856C9.47954 1.04533 10.4875 0.639999 11.8529 0.639999C13.2289 0.639999 14.2369 1.04533 14.8769 1.856C15.5275 2.656 15.8689 3.70133 15.9009 4.992C15.9115 5.29067 15.9169 5.76533 15.9169 6.416C15.9169 7.04533 15.9115 7.504 15.9009 7.792C15.8582 9.09333 15.5169 10.1493 14.8769 10.96C14.2475 11.76 13.2395 12.16 11.8529 12.16ZM11.8529 10.832C12.6742 10.832 13.2929 10.56 13.7089 10.016C14.1249 9.472 14.3435 8.704 14.3649 7.712C14.3755 7.40267 14.3809 6.96 14.3809 6.384C14.3809 5.79733 14.3755 5.36 14.3649 5.072C14.3435 4.09067 14.1195 3.328 13.6929 2.784C13.2769 2.22933 12.6635 1.952 11.8529 1.952C11.0422 1.952 10.4289 2.22933 10.0129 2.784C9.59688 3.328 9.37821 4.09067 9.35688 5.072L9.34088 6.384L9.35688 7.712C9.37821 8.704 9.59688 9.472 10.0129 10.016C10.4289 10.56 11.0422 10.832 11.8529 10.832ZM21.9779 12.16C20.6019 12.16 19.5939 11.76 18.9539 10.96C18.3245 10.1493 17.9885 9.09333 17.9459 7.792L17.9299 6.416L17.9459 4.992C17.9779 3.70133 18.3139 2.656 18.9539 1.856C19.6045 1.04533 20.6125 0.639999 21.9779 0.639999C23.3539 0.639999 24.3619 1.04533 25.0019 1.856C25.6525 2.656 25.9939 3.70133 26.0259 4.992C26.0365 5.29067 26.0419 5.76533 26.0419 6.416C26.0419 7.04533 26.0365 7.504 26.0259 7.792C25.9832 9.09333 25.6419 10.1493 25.0019 10.96C24.3725 11.76 23.3645 12.16 21.9779 12.16ZM21.9779 10.832C22.7992 10.832 23.4179 10.56 23.8339 10.016C24.2499 9.472 24.4685 8.704 24.4899 7.712C24.5005 7.40267 24.5059 6.96 24.5059 6.384C24.5059 5.79733 24.5005 5.36 24.4899 5.072C24.4685 4.09067 24.2445 3.328 23.8179 2.784C23.4019 2.22933 22.7885 1.952 21.9779 1.952C21.1672 1.952 20.5539 2.22933 20.1379 2.784C19.7219 3.328 19.5032 4.09067 19.4819 5.072L19.4659 6.384L19.4819 7.712C19.5032 8.704 19.7219 9.472 20.1379 10.016C20.5539 10.56 21.1672 10.832 21.9779 10.832ZM32.1029 12.16C30.7269 12.16 29.7189 11.76 29.0789 10.96C28.4495 10.1493 28.1135 9.09333 28.0709 7.792L28.0549 6.416L28.0709 4.992C28.1029 3.70133 28.4389 2.656 29.0789 1.856C29.7295 1.04533 30.7375 0.639999 32.1029 0.639999C33.4789 0.639999 34.4869 1.04533 35.1269 1.856C35.7775 2.656 36.1189 3.70133 36.1509 4.992C36.1615 5.29067 36.1669 5.76533 36.1669 6.416C36.1669 7.04533 36.1615 7.504 36.1509 7.792C36.1082 9.09333 35.7669 10.1493 35.1269 10.96C34.4975 11.76 33.4895 12.16 32.1029 12.16ZM32.1029 10.832C32.9242 10.832 33.5429 10.56 33.9589 10.016C34.3749 9.472 34.5935 8.704 34.6149 7.712C34.6255 7.40267 34.6309 6.96 34.6309 6.384C34.6309 5.79733 34.6255 5.36 34.6149 5.072C34.5935 4.09067 34.3695 3.328 33.9429 2.784C33.5269 2.22933 32.9135 1.952 32.1029 1.952C31.2922 1.952 30.6789 2.22933 30.2629 2.784C29.8469 3.328 29.6282 4.09067 29.6069 5.072L29.5909 6.384L29.6069 7.712C29.6282 8.704 29.8469 9.472 30.2629 10.016C30.6789 10.56 31.2922 10.832 32.1029 10.832Z" fill="white"/>
</svg>
