<svg width="40" height="40" viewBox="0 0 40 40" fill="none" xmlns="http://www.w3.org/2000/svg">
<path d="M33.5312 6.46875C29.9219 2.85156 25.1094 0.859375 20 0.859375C14.8906 0.859375 10.0781 2.85156 6.46875 6.46875C2.85938 10.0859 0.859375 14.8906 0.859375 20C0.859375 25.1094 2.85156 29.9219 6.46875 33.5312C10.0859 37.1406 14.8906 39.1406 20 39.1406C25.1094 39.1406 29.9219 37.1484 33.5312 33.5312C37.1406 29.9141 39.1406 25.1094 39.1406 20C39.1406 14.8906 37.1484 10.0781 33.5312 6.46875ZM37.4062 19.1406H29.9844C29.9141 16.1875 29.5 13.3438 28.7734 10.8203C30.1875 10.0938 31.5078 9.17969 32.7188 8.10156C35.4531 11.0234 37.1953 14.8828 37.4062 19.1406ZM20.8594 20.8594H28.2734C28.2109 23.5781 27.8359 26.1797 27.1875 28.5078C25.1875 27.7031 23.0547 27.2344 20.8594 27.1328V20.8594ZM31.4844 6.90625C30.4844 7.78906 29.3906 8.53906 28.2344 9.16406C27.9375 8.33594 27.6016 7.55469 27.2266 6.82031C26.4844 5.35156 25.6406 4.14844 24.7109 3.22656C27.25 3.9375 29.5547 5.21094 31.4844 6.90625ZM20.8594 2.84375C22.6484 3.24219 24.3359 4.89062 25.6953 7.57812C26.0625 8.30469 26.3906 9.07812 26.6797 9.89844C24.8438 10.6562 22.8828 11.1016 20.8594 11.2031V2.84375ZM27.1953 11.5469C27.8359 13.8594 28.2031 16.4453 28.2656 19.1484H20.8594V12.9297C23.0625 12.8281 25.1953 12.3516 27.1953 11.5469ZM19.1406 19.1406H11.7266C11.7891 16.4375 12.1562 13.8516 12.7969 11.5391C14.7969 12.3516 16.9375 12.8203 19.1328 12.9141V19.1406H19.1406ZM19.1484 2.84375V11.2031C17.125 11.1016 15.1562 10.6562 13.3281 9.89844C13.6172 9.07812 13.9453 8.30469 14.3125 7.57812C15.6719 4.89062 17.3594 3.24219 19.1484 2.84375ZM15.2969 3.22656C14.3672 4.14844 13.5234 5.35938 12.7812 6.82031C12.4141 7.55469 12.0781 8.33594 11.7734 9.16406C10.6172 8.53906 9.53125 7.78906 8.52344 6.90625C10.4531 5.21094 12.7578 3.9375 15.2969 3.22656ZM7.28906 8.10156C8.5 9.17969 9.82031 10.0859 11.2344 10.8203C10.5078 13.3516 10.0859 16.1875 10.0234 19.1406H2.60156C2.8125 14.8828 4.55469 11.0234 7.28906 8.10156ZM2.60156 20.8594H10.0234C10.0938 23.8359 10.5156 26.6875 11.25 29.2266C9.84375 29.9531 8.52344 30.8516 7.32031 31.9297C4.5625 29 2.8125 25.1328 2.60156 20.8594ZM8.55469 33.125C9.55469 32.25 10.6406 31.5 11.7891 30.8828C12.0859 31.6875 12.4141 32.4609 12.7812 33.1797C13.5234 34.6484 14.3672 35.8516 15.2969 36.7812C12.7734 36.0703 10.4766 34.8047 8.55469 33.125ZM19.1484 37.1562C17.3594 36.7578 15.6719 35.1094 14.3125 32.4219C13.9531 31.7109 13.6328 30.9531 13.3438 30.1484C15.1719 29.3906 17.1328 28.9453 19.1484 28.8516V37.1562ZM12.8203 28.5078C12.1719 26.1797 11.7969 23.5781 11.7344 20.8594H19.1484V27.1328C16.9531 27.2266 14.8203 27.6953 12.8203 28.5078ZM20.8672 37.1562V28.8516C22.8828 28.9531 24.8438 29.3906 26.6719 30.1484C26.3828 30.9531 26.0625 31.7109 25.7031 32.4219C24.3438 35.1094 22.6562 36.7578 20.8672 37.1562ZM24.7188 36.7734C25.6484 35.8516 26.4922 34.6406 27.2344 33.1719C27.6016 32.4531 27.9297 31.6797 28.2266 30.875C29.375 31.4922 30.4609 32.2422 31.4609 33.1172C29.5391 34.8047 27.2422 36.0703 24.7188 36.7734ZM32.7031 31.9297C31.5 30.8594 30.1797 29.9531 28.7734 29.2266C29.5078 26.6875 29.9297 23.8281 30 20.8594H37.4219C37.2031 25.1328 35.4531 29 32.7031 31.9297Z" fill="#228BD6"/>
</svg>
