<svg width="26" height="13" viewBox="0 0 26 13" fill="none" xmlns="http://www.w3.org/2000/svg">
<path d="M4.416 12C4.30933 12 4.224 11.968 4.16 11.904C4.096 11.8293 4.064 11.7387 4.064 11.632V2.608L1.376 4.672C1.30133 4.736 1.22133 4.768 1.136 4.768C1.04 4.768 0.949333 4.71467 0.864 4.608L0.48 4.112C0.426667 4.03733 0.4 3.96267 0.4 3.888C0.4 3.77067 0.453333 3.67467 0.56 3.6L4.032 0.912C4.14933 0.837333 4.288 0.799999 4.448 0.799999H5.2C5.30667 0.799999 5.392 0.837333 5.456 0.912C5.53067 0.976 5.568 1.06133 5.568 1.168V11.632C5.568 11.7387 5.53067 11.8293 5.456 11.904C5.392 11.968 5.30667 12 5.2 12H4.416ZM11.4529 12.16C10.6529 12.16 9.95954 12.016 9.37288 11.728C8.78621 11.44 8.33821 11.0667 8.02888 10.608C7.71954 10.1387 7.55421 9.63733 7.53288 9.104V9.072C7.53288 8.98667 7.56488 8.91733 7.62888 8.864C7.69288 8.81067 7.76754 8.784 7.85287 8.784H8.63688C8.86088 8.784 9.00488 8.90133 9.06888 9.136C9.22888 9.712 9.52221 10.144 9.94888 10.432C10.3862 10.7093 10.8875 10.848 11.4529 10.848C12.1782 10.848 12.7809 10.6293 13.2609 10.192C13.7409 9.744 13.9809 9.13067 13.9809 8.352C13.9809 7.63733 13.7409 7.072 13.2609 6.656C12.7809 6.22933 12.1782 6.016 11.4529 6.016C11.0689 6.016 10.7595 6.064 10.5249 6.16C10.2902 6.256 10.0502 6.39467 9.80488 6.576C9.66621 6.68267 9.54888 6.76267 9.45288 6.816C9.36754 6.85867 9.27154 6.88 9.16488 6.88H8.39688C8.30088 6.88 8.21554 6.848 8.14088 6.784C8.06621 6.70933 8.03421 6.624 8.04488 6.528L8.54088 1.2C8.57288 0.933333 8.70621 0.799999 8.94088 0.799999H14.4769C14.5942 0.799999 14.6849 0.831999 14.7489 0.896C14.8129 0.96 14.8449 1.05067 14.8449 1.168V1.76C14.8449 1.86667 14.8075 1.952 14.7329 2.016C14.6689 2.08 14.5835 2.112 14.4769 2.112H9.86888L9.58088 5.328C10.0929 4.96533 10.7809 4.784 11.6449 4.784C12.3595 4.784 13.0102 4.928 13.5969 5.216C14.1835 5.49333 14.6475 5.904 14.9889 6.448C15.3409 6.992 15.5169 7.63733 15.5169 8.384C15.5169 9.17333 15.3409 9.856 14.9889 10.432C14.6475 10.9973 14.1675 11.4293 13.5489 11.728C12.9409 12.016 12.2422 12.16 11.4529 12.16ZM21.3216 12.16C19.9456 12.16 18.9376 11.76 18.2976 10.96C17.6683 10.1493 17.3323 9.09333 17.2896 7.792L17.2736 6.416L17.2896 4.992C17.3216 3.70133 17.6576 2.656 18.2976 1.856C18.9483 1.04533 19.9563 0.639999 21.3216 0.639999C22.6976 0.639999 23.7056 1.04533 24.3456 1.856C24.9963 2.656 25.3376 3.70133 25.3696 4.992C25.3803 5.29067 25.3856 5.76533 25.3856 6.416C25.3856 7.04533 25.3803 7.504 25.3696 7.792C25.327 9.09333 24.9856 10.1493 24.3456 10.96C23.7163 11.76 22.7083 12.16 21.3216 12.16ZM21.3216 10.832C22.143 10.832 22.7616 10.56 23.1776 10.016C23.5936 9.472 23.8123 8.704 23.8336 7.712C23.8443 7.40267 23.8496 6.96 23.8496 6.384C23.8496 5.79733 23.8443 5.36 23.8336 5.072C23.8123 4.09067 23.5883 3.328 23.1616 2.784C22.7456 2.22933 22.1323 1.952 21.3216 1.952C20.511 1.952 19.8976 2.22933 19.4816 2.784C19.0656 3.328 18.847 4.09067 18.8256 5.072L18.8096 6.384L18.8256 7.712C18.847 8.704 19.0656 9.472 19.4816 10.016C19.8976 10.56 20.511 10.832 21.3216 10.832Z" fill="white"/>
</svg>
