<svg width="27" height="13" viewBox="0 0 27 13" fill="none" xmlns="http://www.w3.org/2000/svg">
<path d="M4.416 12C4.30933 12 4.224 11.968 4.16 11.904C4.096 11.8293 4.064 11.7387 4.064 11.632V2.608L1.376 4.672C1.30133 4.736 1.22133 4.768 1.136 4.768C1.04 4.768 0.949333 4.71467 0.864 4.608L0.48 4.112C0.426667 4.03733 0.4 3.96267 0.4 3.888C0.4 3.77067 0.453333 3.67467 0.56 3.6L4.032 0.912C4.14933 0.837333 4.288 0.799999 4.448 0.799999H5.2C5.30667 0.799999 5.392 0.837333 5.456 0.912C5.53067 0.976 5.568 1.06133 5.568 1.168V11.632C5.568 11.7387 5.53067 11.8293 5.456 11.904C5.392 11.968 5.30667 12 5.2 12H4.416ZM11.8529 12.16C10.4769 12.16 9.46888 11.76 8.82888 10.96C8.19954 10.1493 7.86354 9.09333 7.82088 7.792L7.80488 6.416L7.82088 4.992C7.85288 3.70133 8.18888 2.656 8.82888 1.856C9.47954 1.04533 10.4875 0.639999 11.8529 0.639999C13.2289 0.639999 14.2369 1.04533 14.8769 1.856C15.5275 2.656 15.8689 3.70133 15.9009 4.992C15.9115 5.29067 15.9169 5.76533 15.9169 6.416C15.9169 7.04533 15.9115 7.504 15.9009 7.792C15.8582 9.09333 15.5169 10.1493 14.8769 10.96C14.2475 11.76 13.2395 12.16 11.8529 12.16ZM11.8529 10.832C12.6742 10.832 13.2929 10.56 13.7089 10.016C14.1249 9.472 14.3435 8.704 14.3649 7.712C14.3755 7.40267 14.3809 6.96 14.3809 6.384C14.3809 5.79733 14.3755 5.36 14.3649 5.072C14.3435 4.09067 14.1195 3.328 13.6929 2.784C13.2769 2.22933 12.6635 1.952 11.8529 1.952C11.0422 1.952 10.4289 2.22933 10.0129 2.784C9.59688 3.328 9.37821 4.09067 9.35688 5.072L9.34088 6.384L9.35688 7.712C9.37821 8.704 9.59688 9.472 10.0129 10.016C10.4289 10.56 11.0422 10.832 11.8529 10.832ZM21.9779 12.16C20.6019 12.16 19.5939 11.76 18.9539 10.96C18.3245 10.1493 17.9885 9.09333 17.9459 7.792L17.9299 6.416L17.9459 4.992C17.9779 3.70133 18.3139 2.656 18.9539 1.856C19.6045 1.04533 20.6125 0.639999 21.9779 0.639999C23.3539 0.639999 24.3619 1.04533 25.0019 1.856C25.6525 2.656 25.9939 3.70133 26.0259 4.992C26.0365 5.29067 26.0419 5.76533 26.0419 6.416C26.0419 7.04533 26.0365 7.504 26.0259 7.792C25.9832 9.09333 25.6419 10.1493 25.0019 10.96C24.3725 11.76 23.3645 12.16 21.9779 12.16ZM21.9779 10.832C22.7992 10.832 23.4179 10.56 23.8339 10.016C24.2499 9.472 24.4685 8.704 24.4899 7.712C24.5005 7.40267 24.5059 6.96 24.5059 6.384C24.5059 5.79733 24.5005 5.36 24.4899 5.072C24.4685 4.09067 24.2445 3.328 23.8179 2.784C23.4019 2.22933 22.7885 1.952 21.9779 1.952C21.1672 1.952 20.5539 2.22933 20.1379 2.784C19.7219 3.328 19.5032 4.09067 19.4819 5.072L19.4659 6.384L19.4819 7.712C19.5032 8.704 19.7219 9.472 20.1379 10.016C20.5539 10.56 21.1672 10.832 21.9779 10.832Z" fill="white"/>
</svg>
